<?xml version="1.0" encoding="UTF-8" standalone="no"?>
<svg
   viewBox="0 0 128 128"
   fill="#ffffff"
   version="1.1"
   id="svg8"
   width="128"
   height="128"
   xmlns="http://www.w3.org/2000/svg"
   xmlns:svg="http://www.w3.org/2000/svg">
  <g
     id="g8"
     transform="matrix(2.001286,0,0,2,-1.2465188e-4,0)"
     style="stroke-width:0.499839">
    <path
       d="M 1.305,41.202 C 5.259,54.386 17.488,64 31.959,64 c 17.673,0 32,-14.327 32,-32 0,-17.673 -14.327,-32 -32,-32 C 15.001,0 1.124,13.193 0.028,29.874 c 2.074,3.477 2.879,5.628 1.275,11.328 z"
       fill="url(#A)"
       id="path7"
       style="fill:#ffffff;stroke-width:0.499839" />
    <path
       d="m 30.31,23.985 0.003,0.158 -7.83,11.375 c -1.268,-0.058 -2.54,0.165 -3.748,0.662 a 8.14,8.14 0 0 0 -1.498,0.8 L 0.042,29.893 c 0,0 -0.398,6.546 1.26,11.424 l 12.156,5.016 c 0.6,2.728 2.48,5.12 5.242,6.27 a 8.88,8.88 0 0 0 11.603,-4.782 8.89,8.89 0 0 0 0.684,-3.656 l 11.193,-8.005 0.275,0.005 c 6.705,0 12.155,-5.466 12.155,-12.18 0,-6.714 -5.44,-12.16 -12.155,-12.174 -6.702,0 -12.155,5.46 -12.155,12.174 z m -1.88,23.05 c -1.454,3.5 -5.466,5.147 -8.953,3.694 a 6.84,6.84 0 0 1 -3.524,-3.362 l 3.957,1.64 a 5.04,5.04 0 0 0 6.591,-2.719 5.05,5.05 0 0 0 -2.715,-6.601 l -4.1,-1.695 c 1.578,-0.6 3.372,-0.62 5.05,0.077 1.7,0.703 3,2.027 3.696,3.72 0.696,1.693 0.692,3.56 -0.01,5.246 M 42.466,32.1 a 8.12,8.12 0 0 1 -8.098,-8.113 8.12,8.12 0 0 1 8.098,-8.111 8.12,8.12 0 0 1 8.1,8.111 8.12,8.12 0 0 1 -8.1,8.113 m -6.068,-8.126 a 6.09,6.09 0 0 1 6.08,-6.095 c 3.355,0 6.084,2.73 6.084,6.095 a 6.09,6.09 0 0 1 -6.084,6.093 6.09,6.09 0 0 1 -6.081,-6.093 z"
       id="path8"
       style="fill:#000000;stroke-width:0.499839" />
  </g>
  <defs
     id="defs7" />
</svg>
