<?xml version="1.0" encoding="UTF-8" standalone="no"?>
<svg
   fill="#000000"
   width="128"
   height="128"
   viewBox="0 0 5.12 5.12"
   version="1.1"
   id="svg1"
   xmlns="http://www.w3.org/2000/svg"
   xmlns:svg="http://www.w3.org/2000/svg"
   xmlns:rdf="http://www.w3.org/1999/02/22-rdf-syntax-ns#"
   xmlns:cc="http://creativecommons.org/ns#"
   xmlns:dc="http://purl.org/dc/elements/1.1/">
  <defs
     id="defs1" />
  <path
     d="M 5.12,3.83744 Q 5.12,3.92448 5.07392,4.0064 5.02784,4.08832 4.95104,4.12416 4.87424,4.16512 4.78208,4.16 4.68992,4.15488 4.62336,4.1088 l -1.92,-1.28 Q 2.56,2.73152 2.56,2.55744 2.56,2.38336 2.70336,2.29632 l 1.92,-1.28 Q 4.69504,0.96512 4.78208,0.96 4.86912,0.95488 4.95104,0.99584 5.02784,1.0368 5.07392,1.1136 5.12,1.1904 5.12,1.27744 Z m -2.56,0 Q 2.56,3.92448 2.51392,4.0064 2.46784,4.08832 2.39104,4.12416 2.31424,4.16512 2.22208,4.16 2.12992,4.15488 2.06336,4.1088 l -1.92,-1.28 Q 0,2.73152 0,2.55744 0,2.38336 0.14336,2.29632 l 1.92,-1.28 Q 2.13504,0.96512 2.22208,0.96 2.30912,0.95488 2.39104,0.99584 2.46784,1.0368 2.51392,1.1136 2.56,1.1904 2.56,1.27744 Z"
     id="path1"
     style="fill:#ffffff;stroke-width:1" />
</svg>
