<?xml version="1.0" encoding="UTF-8" standalone="no"?>
<svg
   fill="#000000"
   width="128"
   height="128"
   viewBox="0 0 5.12 5.12"
   version="1.1"
   id="svg1"
   xmlns="http://www.w3.org/2000/svg"
   xmlns:svg="http://www.w3.org/2000/svg"
   xmlns:rdf="http://www.w3.org/1999/02/22-rdf-syntax-ns#"
   xmlns:cc="http://creativecommons.org/ns#"
   xmlns:dc="http://purl.org/dc/elements/1.1/">
  <defs
     id="defs1" />
  <path
     d="M 0,3.83744 Q 0,3.92448 0.04608,4.0064 0.09216,4.08832 0.16896,4.12416 0.24576,4.16512 0.33792,4.16 0.43008,4.15488 0.49664,4.1088 l 1.92,-1.28 Q 2.56,2.73152 2.56,2.55744 2.56,2.38336 2.41664,2.29632 l -1.92,-1.28 Q 0.42496,0.96512 0.33792,0.96 0.25088,0.95488 0.16896,0.99584 0.09216,1.0368 0.04608,1.1136 0,1.1904 0,1.27744 Z m 2.56,0 Q 2.56,3.92448 2.60608,4.0064 2.65216,4.08832 2.72896,4.12416 2.80576,4.16512 2.89792,4.16 2.99008,4.15488 3.05664,4.1088 l 1.92,-1.28 Q 5.12,2.73152 5.12,2.55744 5.12,2.38336 4.97664,2.29632 l -1.92,-1.28 Q 2.98496,0.96512 2.89792,0.96 2.81088,0.95488 2.72896,0.99584 2.65216,1.0368 2.60608,1.1136 2.56,1.1904 2.56,1.27744 Z"
     id="path1"
     style="fill:#ffffff;stroke-width:1" />
</svg>
