<?xml version="1.0" encoding="UTF-8" standalone="no"?>
<svg
   width="128"
   height="128"
   viewBox="0 0 128 128"
   fill="none"
   version="1.1"
   id="svg1"
   xmlns="http://www.w3.org/2000/svg"
   xmlns:svg="http://www.w3.org/2000/svg">
  <defs
     id="defs1" />
  <path
     fill-rule="evenodd"
     clip-rule="evenodd"
     d="m 64,1.5788703 c -35.36,0 -64,28.6399997 -64,63.9999997 0,28.32 18.32,52.24 43.76,60.72 3.2,0.56 4.4,-1.36 4.4,-3.04 0,-1.52 -0.08,-6.56 -0.08,-11.92 -16.08,2.96 -20.24,-3.92 -21.52,-7.52 -0.72,-1.84 -3.84,-7.52 -6.56,-9.04 -2.24,-1.2 -5.44,-4.16 -0.08,-4.24 5.04,-0.08 8.64,4.64 9.84,6.56 5.76,9.68 14.96,6.96 18.64,5.28 0.56,-4.16 2.24,-6.96 4.08,-8.56 -14.24,-1.6 -29.12,-7.12 -29.12,-31.6 0,-6.96 2.48,-12.72 6.56,-17.2 -0.64,-1.6 -2.88,-8.16 0.64,-16.96 0,0 5.36,-1.68 17.6,6.56 5.12,-1.44 10.56,-2.16 16,-2.16 5.44,0 10.88,0.72 16,2.16 12.24,-8.32 17.6,-6.56 17.6,-6.56 3.52,8.8 1.28,15.36 0.64,16.96 4.08,4.48 6.56,10.16 6.56,17.2 0,24.56 -14.96,30 -29.2,31.6 2.32,2 4.32,5.84 4.32,11.84 0,8.56 -0.08,15.44 -0.08,17.6 0,1.68 1.2,3.68 4.4,3.04 25.28,-8.48 43.6,-32.48 43.6,-60.72 0,-35.36 -28.64,-63.9999997 -64,-63.9999997 z"
     fill="#1b1f23"
     id="path1"
     style="fill:#ffffff;stroke-width:64" />
</svg>
