<?xml version="1.0" encoding="UTF-8" standalone="no"?>
<svg
   width="128"
   height="128"
   viewBox="0 0 128 128"
   fill="none"
   version="1.1"
   id="svg7"
   xmlns="http://www.w3.org/2000/svg"
   xmlns:svg="http://www.w3.org/2000/svg">
  <defs
     id="defs7" />
  <mask
     id="mask0_1_219"
     maskUnits="userSpaceOnUse"
     x="-1"
     y="0"
     width="242"
     height="194">
    <path
       d="M 240.469,0.958984 H -0.00585938 V 193.918 H 240.469 Z"
       fill="#ffffff"
       id="path1" />
  </mask>
  <g
     mask="url(#mask0_1_219)"
     id="g7"
     transform="translate(-15.191361,-1.6816915)">
    <path
       id="path4"
       style="fill:#ffffff;stroke-width:1"
       d="m 75.731142,16.158203 c -14.403502,0 -26.595273,0.139533 -36.431675,1.386479 C 26.278366,19.208538 15.194961,29.18002 15.194961,47.605694 h -0.0036 c 0,18.699876 0.96829,32.693869 8.449788,45.298001 8.450404,14.407155 22.580473,22.301485 40.867218,22.301485 h 4.431973 c 22.440655,0 34.63158,-11.9136 40.72679,-21.332731 2.63294,-4.158115 4.57056,-8.310678 5.81726,-12.468792 15.93172,-1.381982 27.70697,-14.542212 27.70697,-30.613226 v -2.215987 c 0,-17.317778 -11.3576,-29.370313 -30.89172,-31.308248 -8.31135,-0.829978 -14.127872,-1.107993 -36.568528,-1.107993 z m -0.0049,10.389668 c 22.444311,0 27.155388,0.277702 35.049958,0.968751 13.99402,1.659894 22.02657,8.450566 22.02657,21.332738 v 2.076744 c 0,11.500257 -9.55805,20.50204 -20.64128,20.50204 h -4.98776 l -0.83069,3.463226 c -1.10779,5.404817 -3.18369,9.697132 -5.53879,13.576779 -4.848484,7.61671 -13.577197,16.344981 -31.585536,16.344981 h -4.292613 c -13.71611,0 -25.768499,-4.70888 -32.416242,-17.038814 -5.817521,-10.666441 -6.926445,-22.16299 -6.926445,-40.03295 h -0.0036 c 0,-11.635164 4.574962,-18.14435 16.071258,-19.808205 8.172425,-1.246947 18.977231,-1.38529 34.075256,-1.38529 z" />
    <path
       d="m 107.18089,57.301779 c 0,1.663855 1.2467,2.910863 3.46286,2.910863 7.06465,0 10.9443,-4.018759 10.9443,-10.66638 0,-6.64762 -3.87965,-10.805247 -10.9443,-10.805247 -2.21616,0 -3.46286,1.246825 -3.46286,2.91068 V 57.30574 Z"
       fill="#202020"
       id="path6"
       style="fill:#ffffff;stroke-width:1" />
    <path
       d="m 39.163123,56.472898 c 0,8.172547 4.570696,15.237198 10.388339,20.780944 3.879708,3.740109 9.97533,7.620366 14.129179,10.113772 1.246825,0.691597 2.493772,1.108384 3.879952,1.108384 1.66349,0 3.045466,-0.416787 4.157505,-1.108384 4.157505,-2.493406 10.249045,-6.373663 13.990373,-10.113772 5.956267,-5.54009 10.526902,-12.604558 10.526902,-20.780944 0,-8.867373 -6.647255,-16.761819 -16.205921,-16.761819 -5.678409,0 -9.558666,2.910619 -12.468859,6.925539 -2.633127,-4.018698 -6.647925,-6.925539 -12.330478,-6.925539 -9.697351,0 -16.070953,7.894446 -16.070953,16.761819"
       fill="#FF5A16"
       id="path7"
       style="fill:#ffffff;stroke-width:1" />
  </g>
</svg>
