<?xml version="1.0" encoding="UTF-8" standalone="no"?>
<svg
   viewBox="0 0 128 128"
   fill="#ffffff"
   version="1.1"
   id="svg8"
   width="128"
   height="128"
   xmlns="http://www.w3.org/2000/svg"
   xmlns:svg="http://www.w3.org/2000/svg">
  <path
     id="path7"
     style="fill:#ffffff;stroke-width:0.999999"
     d="M 63.987275,0 C 30.034442,0 2.2510211,26.386046 0.05664063,59.748046 c 0.0091944,0.0154 0.01818632,0.0315 0.02735585,0.04688 3.1803e-4,-0.0054 0,-0.0098 0,-0.0098 L 34.511341,73.960938 a 16.29768,16.28 0 0 1 2.999374,-1.601562 c 2.418624,-0.994 4.964565,-1.44022 7.50332,-1.32422 l 15.67686,-22.75 -0.0058,-0.314452 h -0.01962 c 0,-13.428 10.918386,-24.34961 24.336943,-24.34961 13.444585,0.028 24.336942,10.92161 24.336942,24.34961 0,13.428 -10.912379,24.359374 -24.336942,24.359374 l -0.551026,-0.0098 -22.410307,16.009766 a 17.799309,17.78 0 0 1 -1.369748,7.3125 17.779287,17.76 0 0 1 -23.230984,9.562496 c -5.529999,-2.3 -9.293573,-7.083058 -10.494877,-12.539058 L 2.6925727,82.669922 C 10.693407,108.90134 35.111216,128 63.987275,128 99.371661,128 128.05664,99.346 128.05664,64 128.05664,28.654 99.371661,0 63.987275,0 Z M 85.023928,31.751954 A 16.257637,16.24 0 0 0 68.809721,47.97461 16.257637,16.24 0 0 0 85.023928,64.199218 16.257637,16.24 0 0 0 101.24204,47.97461 16.257637,16.24 0 0 0 85.023928,31.751954 Z m 0.02345,4.005858 c 6.717287,0 12.181172,5.459454 12.181172,12.189454 a 12.193227,12.18 0 0 1 -12.181172,12.1875 12.193227,12.18 0 0 1 -12.17531,-12.1875 h 0.002 A 12.193227,12.18 0 0 1 85.047374,35.757812 Z M 44.394621,75.08789 c -1.712859,-0.0142 -3.401006,0.296486 -4.98072,0.896486 l 8.208709,3.38867 a 10.110969,10.1 0 0 1 5.436002,13.203126 10.090947,10.08 0 0 1 -13.195293,5.4375 l -7.92343,-3.279296 a 13.694856,13.68 0 0 0 7.055859,6.722654 c 6.981574,2.906 15.014742,-0.38672 17.9259,-7.386718 h -0.01562 c 1.405525,-3.372 1.413051,-7.106188 0.01962,-10.492188 -1.393512,-3.385998 -3.996067,-6.033452 -7.39976,-7.439452 -1.679822,-0.697 -3.418318,-1.036532 -5.131176,-1.050782 z" />
  <defs
     id="defs7" />
</svg>
