<?xml version="1.0" encoding="UTF-8" standalone="no"?>
<svg
   viewBox="0 0 128 128"
   fill="currentColor"
   fillRule="evenodd"
   version="1.1"
   id="svg1"
   width="128"
   height="128"
   xmlns="http://www.w3.org/2000/svg"
   xmlns:svg="http://www.w3.org/2000/svg">
  <defs
     id="defs1" />
  <path
     d="M 66.802231,0.10672 C 73.788791,0 80.721751,0.05328 87.654701,0 c 0.42672,8.16 3.36,16.47984 9.3328,22.23967 5.973119,5.92 14.399519,8.64 22.612479,9.54656 v 21.49312 c -7.67968,-0.26672 -15.4128,-1.86672 -22.399039,-5.17328 -3.04,-1.38672 -5.8664,-3.14672 -8.63968,-4.96 -0.0533,15.57312 0.0534,31.14639 -0.10656,46.66607 -0.42672,7.46656 -2.88,14.87999 -7.19967,21.01311 -6.9864,10.24 -19.09248,16.9064 -31.51872,17.11984 -7.62624,0.42656 -15.25263,-1.65344 -21.75903,-5.49328 -10.7728,-6.34656 -18.3459201,-17.97312 -19.4657601,-30.45295 -0.10672,-2.66672 -0.16,-5.33328 -0.0534,-7.94656 0.96,-10.13328 5.9731201,-19.83984 13.7595201,-26.45311 8.8528,-7.67984 21.22559,-11.35984 32.79839,-9.17312 0.10672,7.89328 -0.21312,15.78639 -0.21312,23.67967 -5.28,-1.70672 -11.46624,-1.22672 -16.10607,1.97328 -3.35984,2.18672 -5.91968,5.54656 -7.25296,9.33328 -1.12,2.72 -0.8,5.70656 -0.74672,8.58656 1.28,8.74656 9.70624,16.10639 18.66591,15.30639 5.97312,-0.0533 11.67952,-3.52 14.7728,-8.58655 1.01312,-1.76 2.13312,-3.57328 2.1864,-5.65328 0.53344,-9.54656 0.32,-19.03968 0.37344,-28.58624 0.0533,-21.49311 -0.0534,-42.93278 0.10656,-64.37246"
     id="path1"
     style="fill:#ffffff;stroke-width:1" />
</svg>
