<?xml version="1.0" encoding="UTF-8" standalone="no"?>
<svg
   class="external-icon"
   viewBox="0 0 128 128"
   focusable="false"
   style="display:block"
   version="1.1"
   id="svg3"
   width="128"
   height="128"
   xmlns="http://www.w3.org/2000/svg"
   xmlns:svg="http://www.w3.org/2000/svg">
  <defs
     id="defs3" />
  <g
     id="g2"
     style="display:block;fill:#ffffff"
     transform="matrix(4.480224,0,0,4.480224,-2.238512e-4,19.19776)">
    <path
       id="path1"
       style="fill:#ffffff"
       d="m 14.28505,-1.1034605e-4 c 0,0 -8.9347101,3.1290621e-4 -11.1619001,0.59767868605 -1.23,0.329257 -2.1966002,1.29584726 -2.5258572,2.52585726 C -7.3073115e-5,5.3506056 4.9964287e-5,10 4.9964287e-5,10 c 0,0 -1.23037402e-4,4.64981 0.597242735713,6.87701 0.329257,1.23 1.2958572,2.196222 2.5258572,2.525422 2.22719,0.5974 11.1619001,0.597678 11.1619001,0.597678 0,0 8.9348,-2.78e-4 11.1619,-0.597678 1.23,-0.3292 2.196657,-1.295422 2.525857,-2.525422 C 28.570207,14.64981 28.57005,10 28.57005,10 c 0,0 -0.0022,-4.6493944 -0.597243,-6.8765744 C 27.643607,1.8934156 26.67695,0.92682534 25.44695,0.59756834 23.21985,2.0256016e-4 14.28505,-1.1034605e-4 14.28505,-1.1034605e-4 Z M 11.42526,5.7155463 l 7.422376,4.2848897 -7.422376,4.28489 z" />
  </g>
</svg>
