<?xml version="1.0" encoding="UTF-8" standalone="no"?>
<svg
   viewBox="0 0 16384 16384"
   version="1.1"
   id="svg2"
   width="128"
   height="128"
   xmlns="http://www.w3.org/2000/svg"
   xmlns:svg="http://www.w3.org/2000/svg">
  <defs
     id="defs2" />
  <g
     id="g1"
     transform="translate(7.7941198e-5,1568.285)"
     style="fill:#ffffff">
    <path
       d="m 8490.5354,7395.7798 c 30.72,-542.9762 297.8561,-1022.3364 702.0803,-1361.1526 396.0321,-333.0561 927.7443,-536.7042 1511.5523,-536.7042 580.737,0 1112.321,203.5201 1507.841,536.7042 404.864,338.8162 670.336,818.1764 702.08,1361.1526 30.72,556.8002 -194.944,1076.4804 -589.44,1461.3766 -404.224,390.4001 -976.256,637.0562 -1620.481,637.0562 -644.736,0 -1219.3282,-245.1201 -1620.9924,-637.0562 -396.0321,-384.7682 -621.1842,-901.6324 -589.5682,-1458.8166 z m 0,0"
       fill="#235785"
       id="path1"
       style="fill:#ffffff;fill-opacity:1;stroke-width:128" />
    <path
       d="m 5023.398,8543.9402 c 3.584,212.4801 72.192,625.9203 174.08,947.7124 215.2961,683.0084 580.7363,1314.9444 1086.7205,1868.6724 519.9362,571.521 1161.4725,1031.041 1900.8008,1358.081 777.3443,341.76 1621.1206,516.736 2496.6407,516.736 875.521,-1.152 1719.297,-179.2 2496.513,-525.056 739.329,-330.496 1381.121,-789.504 1900.801,-1364.097 508.672,-559.872 872.96,-1191.296 1086.849,-1874.8164 a 4736.0019,4736.0019 0 0 0 204.16,-1044.8644 c 26.624,-344.3201 15.36,-691.8403 -33.664,-1039.3604 A 4804.482,4804.482 0 0 0 15642.922,5503.555 c -329.472,-531.2002 -757.248,-993.2804 -1265.92,-1384.0646 l 1.536,-0.512 L 9264.2957,214.20885 c -4.608,-3.584 -8.704,-7.168 -13.312,-10.24 -335.2321,-256.256109 -901.6324,-255.232109 -1268.4805,1.024 -372.9922,259.9681 -416.0002,689.28028 -83.9681,959.48835 l -1.536,1.024 2135.2969,1725.9527 -6500.9946,6.528 h -8.704 c -537.2163,0.512 -1054.5925,350.5922 -1155.8405,795.2644 -104.9601,450.6881 260.4801,826.8803 820.7363,826.8803 l -1.024,2.048 3294.2094,-6.144 -5894.40244,4478.7218 c -7.168,5.632 -15.36,11.264 -22.52801,16.896 C 8.8679281,9433.2846 -170.20414,10136.773 179.236,10578.885 c 355.58414,450.816 1109.2484,453.888 1670.0167,2.56 L 5056.678,7968.964 c 0,0 -47.104,353.0241 -43.008,562.8162 z m 8263.683,1180.0325 c -661.504,669.1843 -1589.248,1050.8803 -2589.057,1050.8803 -1002.3681,1.536 -1930.1125,-373.504 -2591.7448,-1042.1763 C 7782.9511,9405.1246 7546.023,9032.1324 7398.6949,8633.0283 A 2841.8572,2841.8572 0 0 1 7236.0069,7403.9718 2873.0892,2873.0892 0 0 1 7591.591,6246.9793 c 192.8961,-347.3921 459.5202,-663.0403 785.9203,-930.1764 644.2243,-519.4242 1461.7606,-803.8403 2316.8007,-803.8403 858.753,-1.024 1676.417,278.2721 2320.641,798.2083 326.4,265.6001 592,579.7123 785.921,927.1044 a 2854.6572,2854.6572 0 0 1 355.072,1157.5045 2856.0652,2856.0652 0 0 1 -162.688,1228.5445 c -146.816,402.1761 -384.257,775.1683 -708.225,1102.7204 z m 0,0"
       fill="#e87500"
       id="path2"
       style="fill:#ffffff;stroke-width:128" />
  </g>
</svg>
