<?xml version="1.0" encoding="UTF-8" standalone="no"?>
<svg
   viewBox="0 0 16384 16384"
   version="1.1"
   id="svg1"
   width="128"
   height="128"
   xmlns="http://www.w3.org/2000/svg"
   xmlns:svg="http://www.w3.org/2000/svg">
  <defs
     id="defs1" />
  <path
     d="m 16384,12694.816 c -595.924,151.595 -964.457,6.534 -1295.09,-490.069 -742.292,-1112.131 -1561.688,-2173.295 -2352.333,-3254.061 -101.935,-139.8331 -207.79,-277.0525 -339.782,-450.8638 -935.705,1262.4188 -1870.104,2464.7218 -2747.0019,3715.3798 -313.6444,446.943 -642.9711,641.664 -1228.4406,483.535 L 11939.397,7977.0815 8664.4269,3712.8243 c 563.2531,-109.7755 952.6949,-53.5809 1297.7038,450.8639 761.8943,1113.4377 1602.2003,2173.2944 2439.8923,3294.5732 842.919,-1117.3582 1672.77,-2178.5218 2456.881,-3281.5047 314.951,-446.9433 653.426,-616.834 1219.293,-452.1707 -428.648,568.4805 -848.147,1127.8131 -1270.26,1683.225 -569.788,748.8261 -1129.12,1506.8001 -1719.817,2239.9439 -210.403,261.3703 -176.425,431.261 11.762,678.256 C 14192.41,9762.241 15271.869,11212.846 16384,12694.816 Z M 3.9205552,7898.6704 C 98.013879,7426.8969 160.74276,6945.9755 291.42793,6483.35 1075.539,3682.7667 4290.3942,2518.3619 6498.9736,4253.8609 7792.7568,5271.8985 8114.2423,6706.8216 8050.2066,8324.7041 H 757.974 c -109.77555,2902.5179 1979.8804,4655.0059 4643.2442,3761.1189 934.3989,-313.644 1484.5835,-1045.481 1760.3292,-1960.277 139.8332,-458.7052 371.1459,-530.5821 802.407,-399.8969 -220.858,1144.8019 -721.3822,2101.4179 -1766.8635,2699.9559 -1568.2221,896.5 -3806.8591,606.379 -4984.3325,-639.051 C 517.51328,11054.717 222.16479,10143.842 91.47962,9159.7823 71.876845,9002.9601 31.364441,8848.7516 0,8693.2363 q 3.9205552,-397.283 3.9205552,-794.5659 z M 771.04251,7703.9495 H 7361.4957 C 7318.3696,5605.1456 6011.5179,4114.0278 4225.0516,4100.9593 2264.774,4085.2771 855.98788,5541.1099 771.04251,7703.9495 Z"
     id="path1"
     style="fill:#ffffff;stroke-width:130.685" />
</svg>
