<?xml version="1.0" encoding="UTF-8" standalone="no"?>
<svg
   viewBox="0 0 16384 16384"
   version="1.1"
   id="svg1"
   width="128"
   height="128"
   xmlns="http://www.w3.org/2000/svg"
   xmlns:svg="http://www.w3.org/2000/svg">
  <defs
     id="defs1" />
  <path
     d="m 16384,9257.6178 c -595.924,151.5948 -964.457,6.5343 -1295.09,-490.0694 -742.292,-1112.1308 -1561.688,-2173.2944 -2352.333,-3254.0608 -101.935,-139.8331 -207.79,-277.0525 -339.782,-450.8638 -935.705,1262.4188 -1870.104,2464.7223 -2747.0019,3715.3794 -313.6444,446.9433 -642.9711,641.6642 -1228.4406,483.5352 L 11939.397,4539.8831 8664.4269,275.62594 C 9227.68,165.85039 9617.1218,222.04501 9962.1307,726.48978 10724.025,1839.9275 11564.331,2899.7842 12402.023,4021.063 c 842.919,-1117.3582 1672.77,-2178.5218 2456.881,-3281.5047 314.951,-446.94329 653.426,-616.83402 1219.293,-452.1707 -428.648,568.4805 -848.147,1127.8131 -1270.26,1683.225 -569.788,748.8261 -1129.12,1506.8001 -1719.817,2239.9439 -210.403,261.3703 -176.425,431.261 11.762,678.256 C 14192.41,6325.0426 15271.869,7775.648 16384,9257.6178 Z M 3.9205552,4461.472 C 98.013879,3989.6985 160.74276,3508.7771 291.42793,3046.1516 1075.539,245.56835 4290.3942,-918.83654 6498.9736,816.66255 7792.7568,1834.7001 8114.2423,3269.6232 8050.2066,4887.5057 H 757.974 C 648.19845,7790.0233 2737.8544,9542.5115 5401.2182,8648.6249 6335.6171,8334.9805 6885.8017,7603.1435 7161.5474,6688.3473 7301.3806,6229.6424 7532.6933,6157.7655 7963.9544,6288.4507 7743.0964,7433.2528 7242.5722,8389.8683 6197.0909,8988.4064 4628.8688,9884.9066 2390.2318,9594.7856 1212.7584,8349.3559 517.51328,7617.5189 222.16479,6706.6433 91.47962,5722.5839 71.876845,5565.7617 31.364441,5411.5532 0,5256.0379 Q 3.9205552,4858.7549 3.9205552,4461.472 Z M 771.04251,4266.7511 H 7361.4957 C 7318.3696,2167.9472 6011.5179,676.82941 4225.0516,663.7609 2264.774,648.07867 855.98788,2103.9115 771.04251,4266.7511 Z"
     id="path1"
     style="fill:#ffffff;stroke-width:130.685" />
</svg>
