<?xml version="1.0" encoding="UTF-8" standalone="no"?>
<svg
   viewBox="0 0 16384 16384"
   version="1.1"
   id="svg1"
   width="128"
   height="128"
   xmlns="http://www.w3.org/2000/svg"
   xmlns:svg="http://www.w3.org/2000/svg">
  <defs
     id="defs1" />
  <path
     d="m 4338.2907,14048.627 c -463.0077,0 -1108.263,482.84 -1108.263,1021.935 0,266.372 165.9154,394.05 406.3631,394.05 445.1199,0 1145.0755,-466.637 1145.0755,-1034.379 -0.2592,-279.464 -195.9876,-381.606 -443.3052,-381.606 z M 5877.1561,3644.5652 c 0,-474.6736 -336.238,-837.3543 -837.3543,-837.3543 -469.8776,0 -849.4091,362.6807 -849.4091,837.3543 0,444.9903 361.1252,849.5387 837.095,849.5387 449.7863,0 849.5387,-354.2553 849.5387,-849.4091 z M 8179.6211,1662.265 c 0,-361.6437 -236.5591,-824.91057 -738.842,-824.91057 -456.7859,0 -689.3267,401.56707 -689.3267,763.47007 0,349.7185 247.3177,861.7231 738.8421,861.7231 456.7858,0 689.3266,-450.3048 689.3266,-800.2826 z M 6167.2488,15070.562 c -418.6772,0 -994.5851,547.521 -994.5851,960.495 0,209.728 86.8464,320.165 315.2393,320.165 298.5181,0 729.7685,-253.151 915.6456,-628.016 36.8125,-73.625 103.049,-197.932 103.049,-221.652 v -209.209 c -129.6214,-174.6 -216.8566,-221.653 -339.6081,-221.653 z M 3587.1347,12497.189 c 0,-361.644 -267.7979,-504.746 -566.4456,-504.746 -436.5649,0 -1194.202,419.455 -1194.202,1021.805 0,340.127 231.6334,492.562 554.0019,492.562 412.8442,0 1206.7753,-374.347 1206.7753,-1009.751 z M 3057.6312,7436.7691 c 438.1204,0 1046.5633,-302.2771 1046.5633,-923.4229 0,-468.9703 -386.6607,-763.4701 -812.7263,-763.4701 -462.7484,0 -1058.7476,321.4611 -1058.7476,923.4229 0,463.0077 373.9577,763.4701 824.9106,763.4701 z m 233.9667,2253.2089 c 0,-430.9912 -351.6629,-627.8861 -726.3984,-627.8861 -23.5911,0 -41.4789,-7.2588 -135.3248,0 -541.4286,45.3675 -1046.5632,511.4861 -1046.5632,985.1221 0,442.528 402.3449,627.757 751.0264,627.757 451.0825,0 1157.5192,-346.089 1157.5192,-985.1226 z M 13658.589,1120.5772 c -329.627,0 -443.305,511.7453 -443.305,677.1422 0,164.1007 56.773,529.2442 344.792,529.2442 337.924,0 443.305,-511.7453 443.305,-677.1422 0,-139.2134 -74.662,-529.5035 -344.792,-529.5035 z m -1613.01,-923.55252 c -383.03,0 -504.615,479.5992 -504.615,701.89992 0,146.4721 90.216,668.3279 455.619,664.9578 365.532,-3.8887 504.745,-478.6919 504.745,-714.21394 0,-183.15505 -88.143,-652.51416 -455.618,-652.51416 z M 14729.78,2474.8616 c -304.61,0 -418.677,500.3387 -418.677,652.5142 0,127.2882 48.737,430.9912 283.222,430.9912 296.186,0 406.364,-488.0246 406.364,-640.3298 0,-101.1047 -44.72,-443.3052 -270.909,-443.3052 z M 11528.649,13716.148 c -347.385,0 -591.073,530.67 -591.073,738.842 0,108.364 27.739,221.653 184.84,221.653 343.755,0 591.073,-522.374 591.073,-738.842 -0.259,-101.364 -37.331,-221.653 -184.84,-221.653 z m -3447.5402,1514.367 c -392.7528,0 -849.5387,524.708 -849.5387,886.611 0,53.145 1.037,157.23 98.5123,221.652 102.1417,66.755 284.6486,72.977 504.8754,-73.884 295.5368,-197.284 492.5613,-546.095 492.5613,-775.784 0,-126.122 -80.7541,-258.465 -246.2806,-258.595 z M 9903.3266,1.4271995e-4 c -418.6772,0 -578.63,496.96846728005 -578.63,763.47008728005 0,279.59337 206.098,763.47007 615.4425,763.47007 415.4369,0 574.2229,-496.45 566.4459,-751.15604 C 10496.863,449.78642 10360.112,1.4271995e-4 9903.197,1.4271995e-4 Z m 0,14713.32585728005 c -380.6981,0 -701.7703,545.706 -701.7703,825.04 0,140.639 64.033,221.653 209.2089,221.653 343.8856,0 701.7708,-526.782 701.7708,-800.283 0,-120.159 -24.628,-246.28 -209.339,-246.28 z"
     fill="#231F20"
     id="path1"
     style="fill:#ffffff;stroke-width:129.621" />
</svg>
