<?xml version="1.0" encoding="UTF-8" standalone="no"?>
<svg
   viewBox="0 0 16384 16384"
   version="1.1"
   id="svg4"
   width="128"
   height="128"
   xmlns="http://www.w3.org/2000/svg"
   xmlns:svg="http://www.w3.org/2000/svg">
  <defs
     id="defs4" />
  <g
     color="#000000"
     font-weight="400"
     font-family="sans-serif"
     id="g4"
     style="fill:#ffffff"
     transform="matrix(162.21705,0,0,162.21705,-2373.1082,-2556.8409)">
    <path
       style="line-height:normal;font-variant-ligatures:normal;font-variant-position:normal;font-variant-caps:normal;font-variant-numeric:normal;font-variant-alternates:normal;font-variant-east-asian:normal;font-feature-settings:normal;font-variation-settings:normal;text-indent:0;text-align:start;text-decoration-line:none;text-decoration-style:solid;text-decoration-color:#000000;text-transform:none;text-orientation:mixed;white-space:normal;shape-padding:0;shape-margin:0;inline-size:0;isolation:auto;mix-blend-mode:normal;solid-color:#000000;solid-opacity:1;fill:#ffffff"
       d="m 16.219,15.762 a 1.129,1.129 0 0 0 -1.076,1.399 l 24.394,98.742 a 1.129,1.129 0 0 0 1.879,0.544 l 73.386,-70.59 a 1.129,1.129 0 0 0 -0.47,-1.899 L 16.55,15.806 a 1.129,1.129 0 0 0 -0.331,-0.044 z m 1.584,2.754 94.024,27.07 -70.566,67.877 z"
       overflow="visible"
       id="path1" />
    <path
       style="line-height:normal;font-variant-ligatures:normal;font-variant-position:normal;font-variant-caps:normal;font-variant-numeric:normal;font-variant-alternates:normal;font-variant-east-asian:normal;font-feature-settings:normal;font-variation-settings:normal;text-indent:0;text-align:start;text-decoration-line:none;text-decoration-style:solid;text-decoration-color:#000000;text-transform:none;text-orientation:mixed;white-space:normal;shape-padding:0;shape-margin:0;inline-size:0;isolation:auto;mix-blend-mode:normal;solid-color:#000000;solid-opacity:1;fill:#ffffff"
       d="M 65.137,29.84 A 1.129,1.129 0 0 0 64.33,30.155 L 27.654,65.46 a 1.129,1.129 0 0 0 0.471,1.898 L 76.984,81.44 a 1.129,1.129 0 0 0 1.409,-1.355 L 66.21,30.698 A 1.129,1.129 0 0 0 65.137,29.84 Z m -0.651,3.3 11.248,45.59 -45.104,-13 z"
       overflow="visible"
       id="path2" />
    <path
       style="line-height:normal;font-variant-ligatures:normal;font-variant-position:normal;font-variant-caps:normal;font-variant-numeric:normal;font-variant-alternates:normal;font-variant-east-asian:normal;font-feature-settings:normal;font-variation-settings:normal;text-indent:0;text-align:start;text-decoration-line:none;text-decoration-style:solid;text-decoration-color:#000000;text-transform:none;text-orientation:mixed;white-space:normal;shape-padding:0;shape-margin:0;inline-size:0;isolation:auto;mix-blend-mode:normal;solid-color:#000000;solid-opacity:1;fill:#ffffff"
       d="m 46.914,47.313 a 1.129,1.129 0 0 0 -1.076,1.399 l 6.054,24.531 a 1.129,1.129 0 0 0 1.88,0.543 L 71.994,56.223 A 1.129,1.129 0 0 0 71.522,54.325 L 47.245,47.357 a 1.129,1.129 0 0 0 -0.331,-0.044 z m 1.583,2.751 20.522,5.89 L 53.614,70.8 Z"
       overflow="visible"
       id="path3" />
    <path
       style="line-height:normal;font-variant-ligatures:normal;font-variant-position:normal;font-variant-caps:normal;font-variant-numeric:normal;font-variant-alternates:normal;font-variant-east-asian:normal;font-feature-settings:normal;font-variation-settings:normal;text-indent:0;text-align:start;text-decoration-line:none;text-decoration-style:solid;text-decoration-color:#000000;text-transform:none;text-orientation:mixed;white-space:normal;shape-padding:0;shape-margin:0;inline-size:0;isolation:auto;mix-blend-mode:normal;solid-color:#000000;solid-opacity:1;fill:#ffffff"
       d="m 40.902,22.809 a 1.129,1.129 0 0 0 -0.807,0.316 L 21.873,40.687 a 1.129,1.129 0 0 0 0.472,1.898 l 24.273,6.969 a 1.129,1.129 0 0 0 1.408,-1.356 l -6.051,-24.53 a 1.129,1.129 0 0 0 -1.073,-0.86 z m -0.65,3.3 5.114,20.736 -20.517,-5.89 15.403,-14.847 z m 49.201,10.684 a 1.129,1.129 0 0 0 -0.806,0.316 L 70.423,54.67 a 1.129,1.129 0 0 0 0.472,1.899 l 24.274,6.968 a 1.129,1.129 0 0 0 1.408,-1.356 l -6.05,-24.53 a 1.129,1.129 0 0 0 -1.074,-0.859 z m -0.65,3.3 L 93.917,60.83 73.4,54.94 88.803,40.094 Z M 52.944,71.864 a 1.129,1.129 0 0 0 -0.74,0.315 L 33.982,89.742 a 1.129,1.129 0 0 0 0.472,1.898 l 24.278,6.968 a 1.129,1.129 0 0 0 1.407,-1.355 L 54.084,72.722 a 1.129,1.129 0 0 0 -1.14,-0.858 z m -0.582,3.3 5.118,20.737 -20.522,-5.89 15.404,-14.846 z"
       overflow="visible"
       id="path4" />
  </g>
</svg>
