<?xml version="1.0" encoding="UTF-8" standalone="no"?>
<svg
   viewBox="0 0 16384 16384"
   version="1.1"
   id="svg1"
   width="128"
   height="128"
   xmlns="http://www.w3.org/2000/svg"
   xmlns:svg="http://www.w3.org/2000/svg">
  <defs
     id="defs1" />
  <path
     d="M 7558.3998,0 939.52,3821.4399 V 11463.679 L 3477.1199,9998.08 V 7003.3918 c 1.152,-51.456 28.8,-98.6879 73.344,-123.7759 a 144.63999,144.63999 0 0 1 144.512,-1.0241 l 3083.136,1779.2 a 291.19999,291.19999 0 0 1 145.024,252.1603 v 3558.3999 a 147.96799,147.96799 0 0 1 -72.3201,125.439 144.768,144.768 0 0 1 -143.8719,1.537 L 4112.3839,11095.424 1573.888,12562.303 8190.9758,16384 14808.832,12562.432 12272.255,11095.552 9678.8478,12593.536 a 147.328,147.328 0 0 1 -143.872,-1.024 146.56,146.56 0 0 1 -72.704,-124.928 V 8909.8238 c 0,-104.96 54.272,-199.6801 145.024,-251.904 l 3081.4722,-1779.584 a 143.232,143.232 0 0 1 143.872,1.024 c 45.056,25.088 73.216,72.3201 73.6,123.776 v 2994.6883 l 2538.24,1466.1109 V 3821.4399 h -1.152 L 8827.0078,0 v 2931.1999 l 2593.2792,1497.088 c 44.417,26.112 71.04,73.856 71.04,125.952 0,51.5839 -27.135,98.944 -71.04,124.928 L 8337.6638,6459.9038 a 294.65599,294.65599 0 0 1 -290.56,0 L 4965.3759,4679.1679 a 143.61599,143.61599 0 0 1 -71.68,-124.928 144.25599,144.25599 0 0 1 71.68,-125.952 l 2592.8959,-1497.088 z m 0,0"
     id="path1"
     style="fill:#ffffff;stroke-width:127.999" />
</svg>
