<?xml version="1.0" encoding="UTF-8" standalone="no"?>
<svg
   viewBox="0 0 16384 16384"
   version="1.1"
   id="svg2"
   width="128"
   height="128"
   xmlns="http://www.w3.org/2000/svg"
   xmlns:svg="http://www.w3.org/2000/svg">
  <defs
     id="defs2" />
  <g
     fill-rule="evenodd"
     id="g2"
     style="fill:#ffffff"
     transform="matrix(132.95032,0,0,132.95032,-316.82061,-316.82061)">
    <path
       d="m 100.61,72.875 c -1.063,5.121 -5.785,18.266 -20.852,25.379 l -6.05,-6.8 -10.212,10.261 A 37.67,37.67 0 0 1 33.7,86.43 c 1.086,0.34 2.203,0.551 3.336,0.63 1.672,0.03 3.485,-0.583 3.485,-3.391 V 55.974 a 4.57,4.57 0 0 0 -5.735,-4.57 C 30.06,52.493 26.282,64.286 26.282,64.286 A 37.509,37.509 0 0 1 39.262,35.548 38.043,38.043 0 0 1 58.41,26.712 c -5.16,2.942 -8.058,7.739 -8.058,11.762 0,6.477 3.898,5.692 5.054,4.739 v 37.379 c 0.196,0.468 0.453,0.91 0.762,1.316 a 5.528,5.528 0 0 0 4.516,2.285 c 3.902,0 8.968,-4.457 8.968,-4.457 V 49.478 c 0,-3.078 -2.32,-6.793 -4.644,-8.07 0,0 4.3,-0.762 7.621,1.777 a 28.338,28.338 0 0 1 1.984,-2.183 c 7.747,-7.598 15.04,-9.762 21.117,-10.844 0,0 -11.047,8.683 -11.047,20.332 0,8.664 0.223,29.789 0.223,29.789 4.098,3.957 10.195,-1.758 15.703,-7.403 z"
       id="path1"
       style="fill:#ffffff" />
    <path
       d="M 64,2.383 C 29.973,2.383 2.383,29.973 2.383,64 c 0,34.027 27.59,61.617 61.617,61.617 34.027,0 61.617,-27.59 61.617,-61.617 C 125.617,29.973 98.027,2.383 64,2.383 Z m 0,120.77 C 31.332,123.153 4.848,96.669 4.848,64 4.852,31.333 31.336,4.849 64.004,4.853 c 32.668,0 59.148,26.484 59.148,59.152 0,32.668 -26.484,59.152 -59.152,59.152 z"
       id="path2"
       style="fill:#ffffff" />
  </g>
</svg>
