<?xml version="1.0" encoding="UTF-8" standalone="no"?>
<svg
   xml:space="preserve"
   width="128"
   height="128"
   version="1.1"
   id="svg1"
   xmlns="http://www.w3.org/2000/svg"
   xmlns:svg="http://www.w3.org/2000/svg"><defs
   id="defs1" />
  <path
   fill="#d51007"
   d="m 56.44926,91.78425 -4.6925,-12.75523 c 0,0 -7.62516,8.50424 -19.059823,8.50424 -10.11802,0 -17.301685,-8.79745 -17.301685,-22.873253 0,-18.03415 9.089535,-24.48535 18.034712,-24.48535 12.901836,0 17.006786,8.35707 20.526446,19.06095 L 58.6489,73.897832 C 63.33971,88.11912 72.13716,99.55546 97.50214,99.55546 115.68458,99.55546 128,93.98446 128,79.32279 128,67.446633 121.25447,61.288082 108.64472,58.355413 L 99.26141,56.302937 C 92.81077,54.836883 90.9049,52.197424 90.9049,47.7987 c 0,-4.985145 3.95778,-7.917815 10.41011,-7.917815 7.03762,0 10.84936,2.639459 11.43634,8.944053 l 14.66167,-1.759827 C 126.24017,33.869502 117.15008,28.44454 102.19464,28.44454 c -13.19505,0 -26.09801,4.985145 -26.09801,20.96682 0,9.97029 4.83854,16.275446 17.00679,19.207554 l 9.97141,2.345125 c 7.47744,1.759827 9.96917,4.838541 9.96917,9.091221 0,5.42384 -5.27779,7.62348 -15.24808,7.62348 -14.80884,0 -20.9657,-7.77065 -24.48535,-18.474527 L 68.47203,54.54311 C 62.31516,35.482161 52.49035,28.44454 32.989586,28.44454 11.436906,28.44454 0,42.079966 0,65.245867 0,87.5327 11.436906,99.5549 31.964472,99.5549 c 16.565848,0 24.484788,-7.77065 24.484788,-7.77065 z"
   id="path1"
   style="fill:#ffffff;stroke-width:1" />
</svg>
